<?xml version="1.0" standalone="no"?>
<!DOCTYPE svg PUBLIC "-//W3C//DTD SVG 20010904//EN"
 "http://www.w3.org/TR/2001/REC-SVG-20010904/DTD/svg10.dtd">
<svg version="1.0" xmlns="http://www.w3.org/2000/svg"
 width="720.000000pt" height="720.000000pt" viewBox="0 0 720.000000 720.000000"
 preserveAspectRatio="xMidYMid meet">
<metadata>
Created by potrace 1.14, written by Peter Selinger 2001-2017
</metadata>
<g transform="translate(0.000000,720.000000) scale(0.100000,-0.100000)"
fill="#000000" stroke="none">
<path d="M3399 6196 c-2 -2 -35 -6 -74 -10 -131 -12 -170 -17 -195 -22 -14 -3
-41 -8 -60 -10 -19 -2 -46 -7 -60 -10 -14 -3 -36 -8 -50 -10 -84 -15 -350 -89
-405 -114 -11 -5 -31 -12 -45 -15 -23 -7 -43 -14 -125 -49 -83 -35 -365 -180
-365 -187 0 -5 -5 -9 -11 -9 -12 0 -194 -117 -241 -154 -14 -11 -41 -32 -59
-46 -123 -92 -362 -321 -449 -429 -19 -24 -40 -49 -45 -55 -6 -6 -24 -29 -40
-51 -17 -22 -33 -42 -36 -45 -4 -3 -24 -32 -45 -65 -21 -33 -43 -65 -48 -71
-6 -6 -20 -28 -31 -49 -11 -22 -24 -44 -28 -50 -5 -5 -30 -48 -56 -95 -31 -55
-53 -84 -62 -81 -20 5 -126 3 -179 -4 -197 -25 -403 -143 -527 -301 -59 -75
-124 -205 -139 -279 -1 -5 -7 -30 -13 -55 -7 -29 -10 -245 -10 -620 l0 -575
25 -89 c22 -79 69 -188 94 -220 5 -6 29 -36 53 -66 52 -67 166 -164 218 -187
22 -9 39 -20 39 -25 0 -4 3 -7 8 -6 4 1 25 -6 47 -16 85 -38 216 -64 312 -63
l91 2 31 -60 c77 -146 101 -178 158 -212 90 -53 217 -26 287 60 39 49 48 72
48 133 0 37 -12 66 -60 152 -54 97 -130 252 -137 277 -1 6 -10 28 -20 50 -9
22 -18 45 -20 50 -1 6 -16 55 -33 110 -29 91 -58 205 -67 263 -2 12 -8 53 -14
90 -29 174 -31 518 -5 645 2 12 7 42 10 67 3 25 7 53 10 62 3 10 7 30 10 44
40 220 153 511 287 739 23 39 47 76 54 83 7 7 13 17 13 22 0 5 6 15 13 22 7 7
33 42 59 78 26 36 57 77 70 91 13 15 42 49 64 75 90 106 267 266 404 365 107
77 251 169 267 169 3 0 14 6 22 13 23 19 262 130 293 136 4 1 28 10 53 21 25
11 45 17 45 13 0 -3 6 -1 13 5 16 14 205 66 327 91 96 20 153 28 245 38 28 2
66 6 85 8 44 5 343 6 390 1 19 -2 69 -7 110 -10 192 -18 483 -91 675 -169 126
-51 236 -102 248 -114 5 -4 12 -8 15 -8 4 0 38 -18 75 -40 38 -22 77 -45 87
-50 25 -15 104 -69 110 -76 3 -3 28 -20 55 -39 28 -19 52 -36 55 -39 3 -3 28
-24 55 -46 69 -54 274 -256 321 -317 21 -27 49 -62 62 -76 12 -15 35 -45 50
-67 15 -22 29 -42 32 -45 7 -6 84 -128 112 -178 101 -178 201 -429 243 -607 4
-16 9 -39 12 -50 2 -11 6 -29 8 -40 2 -11 8 -42 13 -70 5 -27 10 -57 10 -65 0
-8 3 -26 6 -40 16 -67 23 -337 13 -485 -11 -150 -52 -366 -94 -497 -14 -45
-28 -92 -30 -102 -2 -11 -7 -24 -12 -30 -5 -6 -14 -29 -21 -51 -20 -63 -81
-190 -154 -319 -36 -65 -66 -121 -66 -124 0 -3 -11 -20 -25 -38 -14 -18 -25
-36 -25 -39 0 -12 -94 -129 -159 -197 -139 -148 -347 -270 -499 -293 -21 -3
-49 -8 -62 -10 -24 -5 -309 -6 -670 -2 l-175 2 -53 52 c-70 69 -125 97 -217
110 -53 8 -572 6 -610 -1 -49 -10 -125 -39 -125 -48 0 -4 -6 -8 -13 -8 -21 0
-101 -80 -129 -130 -46 -81 -59 -152 -45 -242 7 -37 18 -57 52 -91 80 -81 34
-78 1086 -76 961 1 985 2 1144 44 251 66 502 227 684 436 132 152 172 212 301
454 24 44 49 91 56 104 12 23 18 24 111 26 116 2 153 8 253 41 120 40 215 99
311 194 47 48 92 99 101 115 29 57 53 100 58 105 3 3 12 25 20 50 7 25 16 50
19 55 3 6 6 15 7 22 1 6 7 35 13 64 8 36 11 233 9 638 l-3 586 -33 94 c-18 51
-41 105 -51 120 -10 14 -18 28 -18 31 3 12 -68 103 -119 155 -108 108 -260
190 -404 219 -14 3 -36 8 -50 11 -14 3 -67 6 -118 7 l-93 1 -24 48 c-75 146
-232 380 -350 519 -62 72 -303 308 -375 367 -190 153 -377 273 -581 372 -132
64 -215 101 -225 101 -3 0 -20 6 -37 14 -33 15 -173 64 -204 71 -10 3 -67 18
-127 34 -59 17 -111 30 -115 29 -3 0 -8 1 -11 2 -12 4 -88 19 -130 25 -19 3
-46 7 -59 10 -13 2 -46 7 -75 10 -28 3 -67 8 -86 11 -40 6 -505 15 -511 10z"/>
<path d="M2508 4835 c-2 -2 -18 -7 -36 -10 -51 -9 -128 -40 -180 -74 -130 -83
-356 -370 -464 -588 -23 -48 -46 -90 -49 -93 -4 -3 -9 -16 -13 -30 -7 -25 -10
-32 -39 -100 -16 -38 -45 -125 -52 -156 -2 -10 -11 -44 -19 -74 -9 -30 -18
-75 -21 -100 -3 -25 -7 -52 -10 -60 -10 -37 -26 -203 -27 -275 0 -93 15 -284
27 -341 3 -12 7 -39 11 -60 3 -21 12 -64 20 -94 9 -30 17 -62 19 -70 48 -186
157 -354 264 -407 55 -27 226 -27 391 1 14 3 43 7 65 11 22 3 63 10 90 15 28
5 65 12 84 15 19 3 37 7 40 9 3 2 22 7 41 10 19 3 71 13 115 22 44 9 89 17
101 19 11 2 45 8 75 14 30 6 70 13 89 16 19 3 46 7 60 10 35 6 108 16 150 20
19 2 62 7 95 11 75 10 556 11 610 1 22 -3 63 -9 90 -12 95 -10 178 -22 250
-37 28 -5 68 -12 90 -14 22 -2 54 -8 70 -14 17 -5 46 -11 65 -14 38 -6 120
-22 160 -31 14 -4 36 -8 50 -9 14 -2 36 -6 50 -10 14 -3 36 -8 50 -10 14 -3
36 -7 50 -10 14 -3 45 -8 70 -11 25 -3 72 -9 105 -14 33 -5 112 -8 176 -7 110
1 118 2 164 31 27 17 64 51 82 75 18 25 37 50 41 55 19 25 85 191 98 248 2 9
6 25 9 35 13 48 24 101 29 137 4 23 9 52 11 65 9 45 27 246 27 295 -1 36 -13
245 -16 265 -37 239 -93 423 -191 625 -74 152 -104 201 -202 334 -154 209
-282 321 -413 362 -105 34 -274 32 -460 -4 -14 -3 -106 -24 -205 -47 -205 -48
-319 -70 -387 -75 -25 -1 -50 -5 -55 -7 -11 -7 -238 -2 -293 6 -109 17 -223
39 -290 56 -19 5 -46 11 -60 14 -14 3 -72 16 -130 30 -58 14 -122 27 -142 30
-21 2 -42 7 -48 11 -12 7 -275 17 -282 10z m165 -990 c59 -29 138 -101 162
-148 63 -123 52 -297 -25 -387 -54 -64 -77 -83 -134 -112 -169 -85 -387 -14
-473 155 -31 62 -34 76 -38 159 -8 155 86 292 237 345 88 31 193 26 271 -12z
m2105 20 c166 -49 264 -188 258 -367 -7 -198 -173 -344 -380 -334 -130 7 -236
78 -298 201 -84 165 -16 382 147 467 91 48 183 59 273 33z"/>
</g>
</svg>
