<?xml version="1.0" standalone="no"?>
<!DOCTYPE svg PUBLIC "-//W3C//DTD SVG 20010904//EN"
 "http://www.w3.org/TR/2001/REC-SVG-20010904/DTD/svg10.dtd">
<svg version="1.0" xmlns="http://www.w3.org/2000/svg"
 width="700.000000pt" height="700.000000pt" viewBox="0 0 700.000000 700.000000"
 preserveAspectRatio="xMidYMid meet">
<metadata>
Created by potrace 1.14, written by Peter Selinger 2001-2017
</metadata>
<g transform="translate(0.000000,700.000000) scale(0.100000,-0.100000)"
fill="#000000" stroke="none">
<path d="M3309 5486 c-2 -2 -29 -7 -59 -10 -55 -7 -147 -21 -205 -32 -63 -12
-213 -55 -290 -83 -317 -116 -575 -280 -811 -515 -165 -165 -281 -319 -387
-516 l-46 -85 -68 -2 c-67 -1 -83 -4 -153 -21 -138 -35 -297 -167 -364 -302
-63 -129 -65 -150 -62 -665 2 -509 0 -489 71 -624 39 -75 116 -160 185 -207
87 -59 245 -108 335 -104 55 3 61 0 78 -37 56 -125 107 -179 178 -187 69 -7
142 35 170 100 26 57 18 95 -41 207 -78 148 -144 325 -175 474 -7 31 -8 34
-26 143 -20 119 -17 496 5 561 3 8 7 32 10 54 23 175 147 484 271 674 106 163
263 334 421 457 79 62 269 184 286 184 5 0 25 10 46 23 20 13 51 29 67 35 17
6 55 20 85 32 815 317 1763 9 2246 -731 132 -203 252 -514 280 -729 3 -19 7
-46 10 -60 18 -83 12 -410 -10 -535 -2 -11 -7 -38 -11 -60 -39 -219 -162 -514
-301 -726 -96 -146 -252 -278 -384 -327 -97 -35 -123 -37 -626 -32 l-121 1
-37 39 c-20 21 -57 49 -83 62 -46 22 -56 23 -298 23 l-250 0 -51 -27 c-77 -40
-132 -109 -150 -188 -25 -112 4 -182 94 -222 41 -18 72 -19 721 -19 453 0 703
4 752 12 202 31 379 126 545 294 104 105 176 209 264 380 33 65 62 121 64 122
2 2 41 5 87 8 84 4 200 33 248 63 78 47 111 72 158 122 64 67 118 161 138 240
2 8 8 35 14 60 12 50 10 926 -2 971 -72 273 -291 453 -561 463 l-79 3 -37 69
c-108 203 -225 361 -389 525 -69 69 -144 139 -166 155 -22 16 -46 35 -54 42
-25 24 -184 128 -266 174 -224 126 -497 217 -790 264 -42 6 -470 15 -476 10z"/>
<path d="M2640 4435 c-107 -22 -175 -72 -282 -204 -163 -202 -274 -431 -327
-672 -62 -289 -42 -615 53 -848 45 -112 121 -203 181 -220 47 -13 166 -7 300
14 11 2 124 24 250 49 349 70 486 88 680 89 90 0 267 -10 295 -18 8 -2 42 -7
75 -10 32 -4 62 -8 65 -10 4 -2 29 -7 56 -11 27 -3 52 -8 55 -10 4 -2 24 -6
45 -10 22 -3 55 -9 74 -14 19 -5 46 -11 60 -14 42 -7 204 -38 225 -42 54 -12
139 -18 222 -17 108 0 139 16 191 92 61 90 118 276 138 451 17 149 6 401 -21
510 -4 14 -9 36 -12 50 -10 56 -75 234 -117 322 -58 122 -163 278 -252 375
-112 123 -210 165 -368 157 -66 -4 -197 -26 -276 -48 -188 -53 -332 -74 -475
-71 -71 2 -141 5 -155 9 -29 7 -67 15 -95 20 -11 2 -76 18 -145 34 -240 58
-338 69 -440 47z m192 -721 c102 -52 160 -141 161 -247 1 -146 -103 -263 -247
-274 -119 -10 -217 44 -268 148 -76 152 -5 326 154 380 63 21 152 18 200 -7z
m1567 -4 c49 -24 101 -75 120 -116 7 -16 18 -37 23 -47 5 -10 9 -48 9 -84 0
-294 -402 -379 -521 -109 -69 154 22 339 185 376 50 12 142 2 184 -20z"/>
</g>
</svg>
